<svg width="32" height="32" viewBox="0 0 32 32" fill="none" xmlns="http://www.w3.org/2000/svg">
<g clip-path="url(#clip0_40_100)">
<path d="M15.9747 32.0027C12.8 32.0027 9.80403 30.776 7.51203 28.484C4.66936 25.64 3.46669 21.7107 4.21336 17.704C5.06136 13.1534 8.65869 9.38803 13.1627 8.33336C15.8334 7.70536 18.536 7.9707 20.98 9.09203C21.0827 9.14003 21.2214 9.1107 21.316 9.01603L21.4574 8.8747C22.6267 7.70536 24.5294 7.7067 25.6987 8.8747L27.1147 10.2907C27.6814 10.8574 27.9934 11.6107 27.9934 12.412C27.9934 13.2134 27.6814 13.9667 27.1134 14.5334L26.9787 14.6694C26.8827 14.7654 26.8507 14.9027 26.9 15.008C28.0267 17.452 28.292 20.1574 27.6667 22.832C26.6134 27.3414 22.8454 30.9427 18.2907 31.7894C17.5134 31.9347 16.736 32.0054 15.972 32.0054L15.9747 32.0027ZM29.3787 8.5067C30.2267 7.6587 30.6934 6.53203 30.6934 5.33336C30.6934 4.1347 30.2267 3.00803 29.3787 2.16003C27.968 0.749362 26.036 -0.0173044 24.0494 0.0453623C17.212 0.278696 11.9587 1.31603 11.7387 1.36003C11.016 1.50403 10.548 2.2067 10.6934 2.92803C10.836 3.6507 11.544 4.12003 12.2614 3.9747C12.3134 3.96403 17.5334 2.93603 24.14 2.7107C25.3894 2.6667 26.6027 3.15603 27.4934 4.04536C28.2027 4.75603 28.2027 5.9107 27.4934 6.62136C26.972 7.1427 26.972 7.98536 27.4934 8.5067C27.7534 8.7667 28.0947 8.89736 28.436 8.89736C28.7774 8.89736 29.1187 8.7667 29.3787 8.5067ZM5.93469 8.34403L6.40669 6.45336L8.29736 5.98136C8.89069 5.83336 9.30669 5.30003 9.30669 4.68803C9.30669 4.07603 8.89069 3.5427 8.29736 3.3947L6.40669 2.9227L5.93469 1.03203C5.78669 0.437362 5.25336 0.0213623 4.64136 0.0213623C4.02936 0.0213623 3.49603 0.437362 3.34803 1.0307L2.87869 2.90536L1.00803 3.33736C0.412026 3.4747 -0.0146411 4.00003 -0.0253077 4.61203C-0.0359744 5.22403 0.370692 5.76403 0.961359 5.92403L2.87203 6.4387L3.34803 8.34536C3.49603 8.9387 4.02936 9.3547 4.64136 9.3547C5.25336 9.3547 5.78669 8.93736 5.93469 8.34403Z" fill="white"/>
</g>
<defs>
<clipPath id="clip0_40_100">
<rect width="32" height="32" fill="white"/>
</clipPath>
</defs>
</svg>
