<svg width="32" height="32" viewBox="0 0 32 32" fill="none" xmlns="http://www.w3.org/2000/svg">
<g clip-path="url(#clip0_40_88)">
<path d="M18.092 8L20.7107 14.6667H11.3027L13.9693 8H18.092ZM23.5747 14.6667H31.9053C31.7748 14.1966 31.5597 13.7543 31.2707 13.3613L28.5413 9.63733C28.1693 9.13076 27.6835 8.71866 27.1231 8.43426C26.5626 8.14986 25.9432 8.00111 25.3147 8H20.956L23.5747 14.6667ZM20.8187 17.3333H11.1813L16 31.8387L20.8187 17.3333ZM23.6293 17.3333L19.972 28.34L30.8613 18.564C31.2168 18.2096 31.5034 17.7923 31.7067 17.3333H23.6293ZM8.37067 17.3333H0.306675C0.518538 17.8098 0.817429 18.2425 1.18801 18.6093L12.028 28.3427L8.37067 17.3333ZM8.43067 14.6667L11.0973 8H6.68534C6.05685 8.00111 5.43741 8.14986 4.87695 8.43426C4.31648 8.71866 3.83067 9.13076 3.45867 9.63733L0.729342 13.3613C0.440682 13.7544 0.226064 14.1967 0.0960083 14.6667H8.43067ZM17.3333 0H14.6667V5.33333H17.3333V0ZM26.4587 2.20267L24.208 0.770667L21.5413 4.96L23.792 6.392L26.4587 2.20267ZM10.4587 4.96L7.79201 0.770667L5.54134 2.20267L8.20801 6.392L10.4587 4.96Z" fill="white"/>
</g>
<defs>
<clipPath id="clip0_40_88">
<rect width="32" height="32" fill="white"/>
</clipPath>
</defs>
</svg>
